<svg xmlns="http://www.w3.org/2000/svg" version="1.1" viewBox="0 0 512 512" aria-hidden="true"><path fill="currentColor" d="M150.15625.011719c-11.08035.18656-22.17821 2.65638-33.61133 8.27539-33.259999 16.346208-44.936761 54.72382-52.367186 94.523441C110.1756 55.903978 143.78975 29.607439 215.61719 17.880859 192.39711 7.620106 171.30965-.344441 150.15625.011719zm103.67383 31.728515c-123.84041 0-224.328127 100.919466-224.328127 225.292966 0 124.37377 100.487717 225.29493 224.328127 225.29492 123.8404 0 224.32812-100.92115 224.32812-225.29492 0-124.3735-100.48772-225.292966-224.32812-225.292966zm156.74804 37.3125c55.55129 47.261816 71.11932 86.706366 86.33399 150.669926 14.15317-37.66731 23.70735-76.75648 3.53906-108.02735-20.16827-30.915876-51.30559-37.667683-89.87305-42.642576zM191.91016 94.992188c34.67531 0 62.98242 28.073972 62.98242 62.898432 0 34.82474-28.30711 62.89649-62.98242 62.89649-34.67533 0-62.62696-28.07175-62.62696-62.89649 0-34.82446 27.95163-62.898433 62.62696-62.898432zM350.7793 125.9082c34.67531 0 62.6289 28.42918 62.6289 63.25391 0 34.82472-27.95359 62.89648-62.6289 62.89648-34.6753 0-62.62696-28.07176-62.62696-62.89648 0-34.82473 27.95166-63.25391 62.62696-63.25391zm-97.65625 105.18555c15.92232 0 29.01367 12.79224 29.01367 28.7832 0 15.99094-13.09135 28.78321-29.01367 28.78321-15.56851 0-28.66016-12.79227-28.66016-28.78321 0-15.99096 13.09165-28.7832 28.66016-28.7832zm-94.47266 32.33594c34.67532 0 62.62891 28.42943 62.62891 63.2539 0 34.82473-27.95359 62.89844-62.62891 62.89844-34.67531 0-62.626952-28.07371-62.626952-62.89844 0-34.82447 27.951642-63.2539 62.626952-63.2539zm160.99219 30.91601c34.67531 0 62.98242 28.07372 62.98242 62.89844 0 34.82449-28.30711 62.8965-62.98242 62.89648-34.67532.00001-62.62695-28.07199-62.62696-62.89648.00001-34.82472 27.95164-62.89844 62.62696-62.89844zm-307.123049 6.04102c-12.737874 38.02282-20.52276 77.82249.707031 108.02734 21.583607 30.20509 53.075141 35.5363 91.642578 38.73438-57.320412-44.77451-74.658124-83.8642-92.349609-146.76172zM447.73047 405.92773c-43.87488 48.68339-76.42871 76.04584-147.90235 90.61524 36.09065 14.21415 66.87539 23.4533 99.42774 5.68555 32.55232-17.41224 42.81334-56.50117 48.47461-96.30079z"/></svg>