<?xml version="1.0" encoding="UTF-8"?>
<svg version="1.1" xmlns="http://www.w3.org/2000/svg" xmlns:xlink="http://www.w3.org/1999/xlink" viewBox="0 0 512 512">
 <path d="M96.707,190.946 C91.571,200.779 83.524,208.786 73.665,213.874 L200.163,340.825 L230.661,325.374 z M263.562,358.392 L233.065,373.843 L297.162,438.169 C302.298,428.335 310.347,420.327 320.208,415.238 z"/>
 <path d="M409.92,241.178 L338.305,277.46 L343.585,311.225 L424.615,270.171 C416.847,262.25 411.715,252.125 409.92,241.178 z M296.731,298.522 L127.403,384.309 C135.173,392.231 140.306,402.357 142.101,413.305 L302.011,332.288 z"/>
 <path d="M242.276,87.206 L160.57,246.664 L184.694,270.873 L271.204,102.044 C260.263,100.194 250.16,95.012 242.276,87.206 z M139.32,288.138 L97.933,368.906 C108.873,370.756 118.974,375.938 126.858,383.743 L163.442,312.345 z"/>
 <path d="M72.962,214.229 C64.628,218.399 55.355,220.337 46.048,219.854 C44.307,219.757 42.571,219.575 40.847,219.31 L65.013,373.836 C73.347,369.666 82.621,367.728 91.928,368.211 C93.668,368.308 95.403,368.49 97.125,368.755 z"/>
 <path d="M142.229,414.07 C142.782,417.658 142.971,421.293 142.793,424.919 C142.381,432.317 140.446,439.55 137.109,446.167 L291.66,470.959 C291.106,467.371 290.917,463.736 291.095,460.109 C291.508,452.711 293.443,445.478 296.78,438.862 z"/>
 <path d="M425.158,270.736 L353.823,409.955 C364.765,411.805 374.869,416.988 382.754,424.795 L454.087,285.577 C443.145,283.727 433.042,278.543 425.158,270.736 z"/>
 <path d="M327.867,73.832 C322.73,83.666 314.681,91.675 304.82,96.763 L415.293,207.626 C420.429,197.792 428.478,189.784 438.338,184.695 z"/>
 <path d="M227.036,57.65 L87.385,128.399 C95.154,136.319 100.286,146.445 102.082,157.391 L241.731,86.64 C233.964,78.72 228.832,68.595 227.036,57.65 z"/>
 <path d="M304.565,96.891 C296.12,101.215 286.683,103.233 277.208,102.741 C275.63,102.645 274.056,102.48 272.493,102.246 L284.863,181.432 L318.617,186.847 z M292.053,227.468 L321.301,414.689 C329.535,410.652 338.664,408.784 347.822,409.26 C349.71,409.367 351.592,409.574 353.458,409.879 L325.808,232.881 z"/>
 <path d="M102.181,157.985 C102.755,161.629 102.954,165.321 102.774,169.005 C102.367,176.345 100.461,183.523 97.174,190.099 L176.447,202.827 L192.028,172.41 z M238.047,179.797 L222.465,210.217 L409.77,240.29 C409.232,236.742 409.05,233.149 409.226,229.565 C409.643,222.123 411.6,214.85 414.974,208.203 z"/>
 <path d="M329.043,51.625 C327.572,78.626 304.484,99.322 277.474,97.851 C250.464,96.381 229.761,73.3 231.232,46.299 C232.704,19.298 255.792,-1.398 282.802,0.072 C309.811,1.543 330.514,24.624 329.043,51.625 z"/>
 <path d="M511.928,235.158 C510.456,262.158 487.368,282.855 460.358,281.384 C433.349,279.913 412.646,256.832 414.117,229.832 C415.588,202.831 438.677,182.134 465.686,183.605 C492.696,185.076 513.399,208.157 511.928,235.158 z"/>
 <path d="M393.796,465.701 C392.325,492.702 369.237,513.398 342.227,511.928 C315.218,510.457 294.515,487.376 295.986,460.375 C297.457,433.374 320.545,412.678 347.555,414.149 C374.565,415.62 395.268,438.7 393.796,465.701 z"/>
 <path d="M137.903,424.652 C136.432,451.653 113.343,472.349 86.334,470.879 C59.324,469.408 38.621,446.327 40.092,419.326 C41.564,392.325 64.652,371.629 91.661,373.1 C118.671,374.571 139.374,397.651 137.903,424.652 z"/>
 <path d="M97.883,168.739 C96.412,195.74 73.324,216.436 46.314,214.965 C19.304,213.495 -1.399,190.414 0.072,163.413 C1.544,136.412 24.632,115.716 51.642,117.187 C78.651,118.657 99.354,141.738 97.883,168.739 z"/>
</svg>
