<svg version="1.1" aria-hidden="true" xmlns="http://www.w3.org/2000/svg" viewBox="0 0 512 512">
<path fill="currentColor" d="M0,6.686 L43.383,120.505 L0,234.317 L43.383,348.137 L0,461.957 L26.638,472.117 L171.366,327.545 L197.334,331.542 L228.852,300.035 C210.252,278.501 196.328,252.806 188.72,224.431 L203.501,212.3 C200.959,200.52 199.571,188.319 199.571,175.783 C199.571,113.19 232.976,58.192 282.885,27.69 L227.769,6.686 L113.88,50.043 L0,6.686 z"/>
<path fill="currentColor" d="M371.911,34.536 C449.28,34.537 512,97.219 512,174.541 C512,251.863 449.28,314.545 371.912,314.545 C294.543,314.545 231.823,251.863 231.823,174.541 C231.823,97.219 294.543,34.537 371.912,34.537 L371.911,34.536 z"/>
<path fill="currentColor" d="M484.015,309.049 C453.908,334.129 415.249,349.22 373.113,349.22 C360.569,349.22 348.361,347.833 336.574,345.294 L324.436,360.065 C297.471,352.843 272.898,339.996 252.037,322.801 L219.427,355.453 L223.434,379.574 L102.156,500.842 L113.88,505.314 L227.769,461.957 L341.657,505.314 L455.537,461.957 L498.929,348.137 L484.015,309.049 z"/>
</svg>
