<svg version="1.1" aria-hidden="true" xmlns="http://www.w3.org/2000/svg" viewBox="0 0 512 512">
<path fill="currentColor" d="M0,6.686 L43.383,120.505 L0,234.317 L43.383,348.137 L0,461.957 L26.638,472.117 L171.366,327.545 L197.334,331.542 L228.852,300.035 C210.252,278.501 196.328,252.806 188.72,224.431 L203.501,212.3 C200.959,200.52 199.571,188.319 199.571,175.783 C199.571,113.19 232.976,58.192 282.885,27.69 L227.769,6.686 L113.88,50.043 L0,6.686 z"/>
<path fill="currentColor" d="M371.911,34.536 C449.28,34.537 512,97.219 512,174.541 C512,251.863 449.28,314.545 371.912,314.545 C294.543,314.545 231.823,251.863 231.823,174.541 C231.823,97.219 294.543,34.537 371.912,34.537 z M469.319,120.607 C466.447,120.608 463.221,120.785 459.622,121.14 C456.167,121.512 453.118,121.689 450.476,121.688 C447.978,121.689 444.858,121.512 441.153,121.14 C437.147,120.785 433.673,120.608 430.748,120.607 C429.667,120.608 429.136,121.441 429.135,123.123 C429.136,124.789 429.49,125.621 430.217,125.621 C438.229,125.993 442.235,129.093 442.234,134.956 C442.235,137.402 441.632,140.094 440.444,143.017 L406.004,223.052 L382.677,175.559 L399.906,143.725 C404.143,136.321 407.688,131.574 410.524,129.483 C413.36,127.393 417.118,126.1 421.779,125.621 C423.091,125.621 423.747,124.665 423.747,122.752 C423.747,121.317 423.393,120.608 422.684,120.607 C419.635,120.608 415.824,120.821 411.286,121.228 C407.706,121.529 404.976,121.689 403.133,121.688 C400.563,121.689 397.266,121.512 393.259,121.14 C389.077,120.785 385.549,120.608 382.677,120.607 C382.323,120.608 381.969,120.874 381.596,121.422 C381.242,121.954 381.065,122.521 381.064,123.123 C381.065,124.789 381.419,125.621 382.146,125.621 C390.158,125.993 394.164,128.916 394.164,134.408 C394.164,136.746 393.26,139.616 391.469,143.017 L378.547,167.126 L365.555,140.767 C363.694,137.012 362.772,134.231 362.772,132.441 C362.772,128.438 366.778,126.171 374.79,125.621 C375.393,125.621 375.676,124.789 375.676,123.123 C375.676,121.441 375.198,120.608 374.24,120.607 C370.235,120.608 366.176,120.785 362.045,121.14 C358.04,121.512 354.247,121.689 350.666,121.688 C347.015,121.689 343.576,121.512 340.35,121.14 C337,120.785 333.331,120.608 329.325,120.607 C328.474,120.608 328.066,121.441 328.066,123.123 C328.066,123.779 328.261,124.364 328.651,124.859 C329.041,125.373 329.431,125.621 329.856,125.621 C334.465,126.1 337.904,127.411 340.173,129.518 C342.442,131.644 345.349,136.392 348.876,143.725 L368.515,184.876 L347.44,224.663 L310.305,140.856 C309.349,138.712 308.87,136.923 308.869,135.488 C308.87,132.672 310.022,130.404 312.326,128.668 C314.631,126.95 317.786,125.923 321.791,125.621 C322.377,125.621 322.678,124.789 322.677,123.123 C322.678,121.441 322.199,120.608 321.242,120.607 C317.236,120.608 312.628,120.785 307.434,121.14 C302.471,121.512 298.164,121.689 294.512,121.688 C290.932,121.689 287.103,121.512 283.044,121.14 C278.666,120.785 274.483,120.608 270.477,120.607 C269.52,120.608 269.041,121.441 269.041,123.123 C269.041,123.779 269.254,124.364 269.679,124.859 C270.087,125.373 270.548,125.621 271.027,125.621 C276.575,126.224 280.917,127.8 284.019,130.333 C287.139,132.867 290.099,137.331 292.899,143.725 L337.832,246.718 C338.258,247.675 339.127,248.153 340.438,248.153 C341.52,248.153 342.353,247.675 342.955,246.718 L372.45,193.114 L398.098,246.718 C398.701,247.675 399.535,248.153 400.615,248.153 C401.998,248.153 402.831,247.675 403.133,246.718 L448.863,143.725 C451.859,136.923 454.749,132.3 457.567,129.891 C460.368,127.464 464.001,126.047 468.414,125.621 C468.964,125.621 469.443,125.32 469.903,124.735 C470.347,124.133 470.577,123.478 470.577,122.752 C470.577,121.317 470.152,120.608 469.319,120.607 z"/>
<path fill="currentColor" d="M484.015,309.049 C453.908,334.129 415.249,349.22 373.113,349.22 C360.569,349.22 348.361,347.833 336.574,345.294 L324.436,360.065 C297.471,352.843 272.898,339.996 252.037,322.801 L219.427,355.453 L223.434,379.574 L102.156,500.842 L113.88,505.314 L227.769,461.957 L341.657,505.314 L455.537,461.957 L498.929,348.137 L484.015,309.049 z"/>
</svg>
