<svg version="1.1" xmlns="http://www.w3.org/2000/svg" xmlns:xlink="http://www.w3.org/1999/xlink" viewBox="0 0 50 50">
<path d="M10.42,40.16 C10.15,40.5 9.8,40.77 9.4,41 C8,41.6 6.3,41 5.7,39.5 C5,38.1 5.7,36.5 7.1,35.8 C7.5,35.7 7.9,35.6 8.24,35.6 L6,32.5 C6,32.5 24.5,32.5 24.5,32.5 C24.5,32.5 11,45 11,45 C11,45 10.6,41.5 10.4,40.2 z M9.5,28 C9.13,28 8.7,28 8.27,27.8 C6.86,27.15 6.3,25.5 6.8,24 C7.5,22.7 9.1,22 10.5,22.7 C10.9,22.8 11.2,23 11.5,23.3 L11,19 C11,19 26,31 26,31 C26,31 6,31 6,31 C6,31 8.7,29 9.5,28 z M33,12.5 C33,12.13 33,11.7 33.2,11.2 C33.8,9.9 35.5,9.2 36.9,9.9 C38.3,10.5 39,12.1 38.3,13.5 C38.1,13.9 37.9,14.2 37.6,14.5 L42,15 L28.5,28.5 C28.5,28.5 30,9 30,9 C30,9 32,11.7 33,12.6 z M14,44 C14,44 40,19 40,19 C48.1,27.1 46.2,37.8 39.9,44 C30.8,53.2 18.7,48.7 14,44 z M25.7,46.6 C24,47 23.7,47.3 23,48 C29,49 32,48 37,45 C37.2,42.7 37.7,41 40,40 C41,39.5 42.2,38.2 43,37 C45,33 44,29 43.1,25.8 C42.9,25 42,25 41.8,25.8 C41,30 40,30 38,29 C36.1,28.2 35.5,28.7 35,30 C35,30 34.8,30.6 36,31 C36,30 40,30 36.8,32.2 C35.8,32.3 35.8,32.9 34.9,31.9 C34,31 32,32 32,32 C32,32 31,33 30,33 C29,33 29,35 30.3,34.7 C31.7,34.4 32.1,34.5 32.9,34.5 C33.4,34.8 33.8,35.4 34.1,36 C34.4,36.6 34,37 35,37 C35.3,36.5 34.9,36.1 35,35.5 C35.4,35.2 36,36 36,36 C37,37 38,39 37.1,39.5 C36,40 35,40 33.8,38.7 C33,37 31.4,35.9 30.8,35.7 C30.8,35.7 30.5,35.5 30,35 C30,35 29.6,35 28.8,35.1 C27,35 25.8,34.8 25,36 C22.6,39.8 24.9,41.9 27,43 C27.9,44.9 25.7,46.6 25.7,46.6 z M27,30 C17,22 11.1,16.3 9.8,13.2 C8,8.6 10.2,3.3 14.8,1.4 C19.4,-0.4 24.7,1.8 26.6,6.4 C27.8,9.5 28,17 27,30 z M19.7,13.2 C21.7,12.4 22.6,10.2 21.8,8.2 C21,6.2 18.8,5.3 16.8,6.1 C14.9,6.9 13.9,9.1 14.7,11.1 C15.5,13 17.7,14 19.7,13.2 z" fill="currentColor"/>
</svg>
