<?xml version="1.0" encoding="UTF-8"?>
<svg width="385px" height="385px" viewBox="0 0 385 385" version="1.1" xmlns="http://www.w3.org/2000/svg" xmlns:xlink="http://www.w3.org/1999/xlink">
    <path fill="currentColor" d="M78.6759041,315.969448 C76.6033614,318.546408 73.9033263,320.682139 70.6744121,322.119744 C59.8268617,326.949385 47.1179875,322.070905 42.2883469,311.223355 C37.4587063,300.375804 42.3371861,287.66693 53.1847364,282.83729 C56.0122712,281.57839 58.9662722,280.979101 61.8742301,280.973203 C55.4589198,274.039033 47.142657,267.316406 36.9254416,260.805321 L36.9254284,260.805342 C35.9939151,260.21172 35.7199999,258.975354 36.3136218,258.043841 C36.6603066,257.499822 37.2481061,257.156422 37.892259,257.121582 L180.182822,249.425561 C181.285779,249.365905 182.228263,250.211669 182.287918,251.314626 C182.318657,251.882947 182.105805,252.437445 181.702681,252.839221 L80.772395,353.432106 C79.9900465,354.211839 78.7237291,354.209719 77.9439959,353.427371 C77.4886188,352.970466 77.281582,352.32197 77.3879627,351.68572 C79.6512792,338.149121 80.080593,326.243697 78.6759041,315.969448 Z M71.8019256,209.26991 C68.5000693,209.454033 65.1062357,208.876599 61.8773215,207.438994 C51.0297712,202.609353 46.1512914,189.900479 50.980932,179.052929 C55.8105726,168.205378 68.5194469,163.326899 79.3669972,168.156539 C82.194532,169.415439 84.6165029,171.209687 86.5666897,173.366774 C87.4271014,163.959404 86.8583211,153.280901 84.8603487,141.331264 L84.8603243,141.331268 C84.6781673,140.241808 85.4136815,139.210959 86.5031413,139.028802 C87.1394036,138.922419 87.7879136,139.129461 88.2448273,139.584847 L189.175057,240.177699 C189.957412,240.957439 189.959532,242.223767 189.179792,243.006122 C188.778016,243.409246 188.223517,243.622098 187.655197,243.591359 L45.3645715,235.895317 C44.2616234,235.835662 43.4158672,234.893187 43.4755219,233.790239 C43.5103613,233.146099 43.8537537,232.558311 44.3977616,232.211634 C55.9718697,224.835853 65.106591,217.188612 71.8019256,209.26991 Z M251.511342,97.6631172 C251.327219,94.3612609 251.904653,90.9674273 253.342258,87.7385131 C258.171899,76.8909628 270.880773,72.012483 281.728323,76.8421236 C292.575874,81.6717642 297.454353,94.3806385 292.624713,105.228189 C291.365813,108.055724 289.571565,110.477694 287.414478,112.427881 C296.821848,113.288293 307.500351,112.719513 319.449988,110.72154 L319.449984,110.721516 C320.539444,110.539359 321.570293,111.274873 321.75245,112.364333 C321.858833,113.000595 321.651791,113.649105 321.196405,114.106019 L220.603553,215.036248 C219.823813,215.818603 218.557485,215.820723 217.77513,215.040983 C217.372006,214.639207 217.159154,214.084709 217.189893,213.516389 L224.885935,71.2257631 C224.94559,70.122815 225.888065,69.2770588 226.991013,69.3367136 C227.635153,69.3715529 228.222941,69.7149453 228.569618,70.2589532 C235.945399,81.8330613 243.59264,90.9677826 251.511342,97.6631172 Z M111.097276,338.606735 C138.674441,311.029571 278.681583,171.022428 306.965855,142.738157 C369.191251,204.963553 355.451945,290.827751 307.319408,338.960288 C236.962283,409.317413 147.159722,374.669181 111.097276,338.606735 Z M198.07141,359.112832 C198.07141,359.112832 195.95009,359.348534 191.707449,359.819938 L186.757702,361.941259 C186.757702,361.941259 184.400679,363.826877 179.686634,367.598113 C179.686634,367.598113 181.572252,368.540922 185.343488,370.42654 C185.343488,370.42654 190.528938,371.369349 200.899838,373.254967 C200.899838,373.254967 205.613883,372.783563 215.041973,371.840754 C215.041973,371.840754 220.93453,370.662242 232.719643,368.30522 C232.719643,368.30522 238.376497,366.419602 249.690205,362.648366 C249.690205,362.648366 252.990037,360.762747 259.5897,356.991511 C259.5897,356.991511 262.182425,356.284405 267.367875,354.870191 C267.367875,354.870191 272.789027,352.748871 283.631331,348.50623 C283.631331,348.50623 285.988354,342.849376 290.702399,331.535667 C290.702399,331.535667 295.416444,327.764431 304.844534,320.221959 C304.844534,320.221959 308.380068,314.800807 315.451136,303.958503 C315.451136,303.958503 318.043861,303.251396 323.229311,301.837182 C323.229311,301.837182 324.643524,299.48016 327.471951,294.766115 C327.471951,294.766115 327.471951,292.880496 327.471951,289.10926 C327.471951,289.10926 328.650463,286.98794 331.007485,282.745299 C331.007485,282.745299 331.950294,279.916872 333.835912,274.260018 C333.835912,274.260018 335.014424,270.724484 337.371446,263.653416 C337.371446,263.653416 338.314255,257.053753 340.199873,243.854426 C340.199873,243.854426 339.728469,240.08319 338.78566,232.540718 C338.78566,232.540718 337.842851,228.298077 335.957233,219.812796 C335.957233,219.812796 335.72153,215.334453 335.250126,206.377767 C335.250126,206.377767 334.071615,203.785042 331.714592,198.599592 C331.714592,198.599592 329.357569,197.656783 324.643524,195.771165 C324.643524,195.771165 323.700715,196.713974 321.815097,198.599592 C321.815097,198.599592 322.050799,202.135126 322.522204,209.206194 C322.522204,209.206194 320.636586,212.506026 316.86535,219.105689 C316.86535,219.105689 314.272625,221.227009 309.087175,225.46965 C309.087175,225.46965 307.672961,227.355268 304.844534,231.126504 C304.844534,231.126504 303.194619,228.062375 299.894787,221.934116 C299.894787,221.934116 298.244871,220.2842 294.945039,216.984369 C294.945039,216.984369 291.88091,217.691475 285.752651,219.105689 C285.752651,219.105689 281.981415,221.934116 274.438943,227.59097 C274.438943,227.59097 273.967538,229.476588 273.024729,233.247825 C273.024729,233.247825 274.910347,236.076252 278.681583,241.733106 C278.681583,241.733106 279.624393,240.790297 281.510011,238.904679 C281.510011,238.904679 281.981415,237.019061 282.924224,233.247825 C282.924224,233.247825 284.102735,233.012122 286.459758,232.540718 C286.459758,232.540718 287.638269,233.719229 289.995292,236.076252 C289.995292,236.076252 289.75959,238.197572 289.288185,242.440213 C289.288185,242.440213 287.402567,244.325831 283.631331,248.097067 C283.631331,248.097067 281.038606,248.332769 275.853156,248.804174 C275.853156,248.804174 273.496134,247.861365 268.782089,245.975747 C268.782089,245.975747 261.711021,246.918556 247.568885,248.804174 C247.568885,248.804174 246.154672,251.161196 243.326244,255.875242 C243.326244,255.875242 240.262115,255.639539 234.133856,255.168135 C234.133856,255.168135 232.719643,255.639539 229.891216,256.582348 C229.891216,256.582348 229.184109,257.76086 227.769895,260.117882 C227.769895,260.117882 228.005597,261.767798 228.477002,265.06763 C228.477002,265.06763 230.126918,265.774737 233.426749,267.18895 C233.426749,267.18895 236.962283,266.481843 244.033351,265.06763 C244.033351,265.06763 247.097481,265.303332 253.225739,265.774737 C253.225739,265.774737 255.34706,268.838866 259.5897,274.967125 C259.5897,274.967125 260.768212,276.61704 263.125234,279.916872 C263.125234,279.916872 264.303746,281.095383 266.660768,283.452406 C266.660768,283.452406 267.367875,282.273895 268.782089,279.916872 C268.782089,279.916872 269.017791,277.795552 269.489195,273.552911 C269.489195,273.552911 270.432004,272.610102 272.317622,270.724484 C272.317622,270.724484 273.024729,272.3744 274.438943,275.674231 C274.438943,275.674231 275.617454,277.324147 277.974477,280.623979 C277.974477,280.623979 279.860095,282.038192 283.631331,284.86662 C283.631331,284.86662 285.752651,288.402154 289.995292,295.473221 C289.995292,295.473221 289.75959,297.123137 289.288185,300.422969 C289.288185,300.422969 288.109674,301.60148 285.752651,303.958503 C285.752651,303.958503 283.867033,303.958503 280.095797,303.958503 C280.095797,303.958503 277.974477,302.779991 273.731836,300.422969 C273.731836,300.422969 269.253493,299.715862 260.296807,298.301648 C260.296807,298.301648 257.46838,295.473221 251.811526,289.816367 C251.811526,289.816367 251.340121,287.930749 250.397312,284.159513 C250.397312,284.159513 248.511694,281.80249 244.740458,277.088445 C244.740458,277.088445 242.147733,276.381338 236.962283,274.967125 C236.962283,274.967125 235.076665,273.081507 231.305429,269.31027 C231.305429,269.31027 228.2413,269.545973 222.113041,270.017377 C222.113041,270.017377 217.634698,271.667293 208.678012,274.967125 C208.678012,274.967125 207.263799,274.49572 204.435371,273.552911 C204.435371,273.552911 199.014219,275.202827 188.171915,278.502659 C188.171915,278.502659 186.050595,280.623979 181.807954,284.86662 C181.807954,284.86662 179.686634,287.459344 175.443993,292.644794 C175.443993,292.644794 175.679696,298.065946 176.1511,308.90825 C176.1511,308.90825 178.979527,311.736677 184.636382,317.393532 C184.636382,317.393532 188.64332,319.514852 196.657197,323.757493 C196.657197,323.757493 200.664135,326.350217 208.678012,331.535667 C208.678012,331.535667 208.44231,335.071201 207.970905,342.142269 C207.970905,342.142269 207.028096,343.085078 205.142478,344.970696 C205.142478,344.970696 198.07141,359.112832 198.07141,359.112832 Z M205.443566,237.311992 C128.490694,170.532263 85.2213178,125.279455 75.6354373,101.553568 C61.2566164,65.9647375 78.4507264,25.4579527 114.039557,11.0791319 C149.628387,-3.29968898 190.135172,13.8944211 204.513993,49.4832515 C214.099874,73.2091385 214.409731,135.818719 205.443566,237.311992 Z M151.678187,101.568543 C166.784237,95.4653025 174.082457,78.2717752 167.979216,63.1657248 C161.875976,48.0596745 144.682448,40.7614551 129.576398,46.8646956 C114.470348,52.9679361 107.172128,70.1614635 113.275369,85.2675138 C119.378609,100.373564 136.572137,107.671784 151.678187,101.568543 Z"></path>
</svg>
